<svg id="Capa_1" enable-background="new 0 0 510.014 510.014" height="50" viewBox="0 0 510.014 510.014" width="50" xmlns="http://www.w3.org/2000/svg"><g><g><path d="m255.014.007c-98.131 0-158.58 55.352-158.747 55.445 0 0-2.513 3.137-2.983 5.222-3.818 16.948-7.385 39.663-7.385 56.238 0 140.833 118.763 254.972 259.596 254.972 54.231 0 114.568-25.992 154.949-57.243.903-.699 3.769-5.396 3.769-5.396.178-1.087 5.8-23.477 5.8-54.239.001-140.832-114.167-254.999-254.999-254.999z" fill="#afe6ff"/><g><path d="m2.862 293.145h165.52c-48.03-46.373-77.91-111.423-77.91-183.459 0-18.615 2.007-36.753 5.795-54.234-71.23 56.746-107.054 146.713-93.405 237.693z" fill="#73c8f0"/></g><path d="m243.738 412.857-148.551 40.836c43.726 35.221 99.309 56.314 159.827 56.314 62.649 0 120.423-22.72 165.086-60.667z" fill="#0460d9"/></g><path d="m345.592 84.845h23.893v210.911h-23.893z" fill="#ffa50a" transform="matrix(-1 0 0 -1 715.078 380.601)"/><path d="m369.486 84.845h16.152v210.911h-16.152z" fill="#ffc305"/><path d="m305.546 44.095h23.893v210.911h-23.893z" fill="#ffa50a" transform="matrix(-1 0 0 -1 634.986 299.102)"/><path d="m329.44 44.095h16.152v210.911h-16.152z" fill="#ffc305"/><path d="m277.382 97.573h23.893v210.911h-23.893z" fill="#ffa50a" transform="matrix(-.983 .183 -.183 -.983 610.918 349.699)"/><path d="m300.937 93.91h16.152v210.911h-16.152z" fill="#ffc305" transform="matrix(.983 -.183 .183 .983 -31.259 59.899)"/><path d="m425.684 43.235h23.893v210.911h-23.893z" fill="#ffa50a" transform="matrix(-1 0 0 -1 875.262 297.382)"/><path d="m449.578 43.235h16.152v210.911h-16.152z" fill="#ffc305"/><path d="m385.638 69.234h23.893v210.911h-23.893z" fill="#ffa50a" transform="matrix(-1 0 0 -1 795.17 349.38)"/><path d="m409.532 69.234h16.152v210.911h-16.152z" fill="#ffc305"/><path d="m447.87 89.137h23.893v210.911h-23.893z" fill="#ffa50a" transform="matrix(-.979 -.203 .203 -.979 870.472 478.598)"/><path d="m471.345 93.208h16.152v210.911h-16.152z" fill="#ffc305" transform="matrix(.979 .203 -.203 .979 50.397 -93.313)"/><path d="m345.592 199.072h23.894v96.684h-23.894z" fill="#fa870a"/><path d="m369.486 199.072h16.152v96.684h-16.152z" fill="#ffa50a"/><path d="m305.546 199.072h23.894v55.935h-23.894z" fill="#fa870a"/><path d="m329.44 199.072h16.152v55.935h-16.152z" fill="#ffa50a"/><path d="m276.44 199.072 20.437 109.819 23.49-4.372-19.623-105.447z" fill="#fa870a"/><path d="m300.744 199.072 19.623 105.447 15.88-2.955-19.073-102.492z" fill="#ffa50a"/><path d="m425.684 199.072h23.894v55.075h-23.894z" fill="#fa870a"/><path d="m449.578 199.072h16.152v55.075h-16.152z" fill="#ffc305"/><path d="m385.638 199.072h23.894v81.073h-23.894z" fill="#fa870a"/><path d="m409.532 199.072h16.152v81.073h-16.152z" fill="#ffa50a"/><path d="m446.685 199.072-20.004 96.346 23.394 4.857 21.013-101.203z" fill="#fa870a"/><path d="m471.088 199.072-21.013 101.203 15.816 3.284 21.694-104.487z" fill="#ffa50a"/><path d="m302.866 212.283 31.66 200.574h34.96l139.281-9.352v-191.222z" fill="#97d729"/><path d="m459.418 344.978h-130.544c-6.286 0-11.381-5.096-11.381-11.381v-54.701c0-6.286 5.096-11.381 11.381-11.381h130.544c6.286 0 11.381 5.096 11.381 11.381v54.701c0 6.285-5.095 11.381-11.381 11.381z" fill="#64bc0f"/><path d="m349.426 348.532v-136.249h-91.253l-4.986 241.407 227.286-.944c15.645-.065 28.294-12.766 28.294-28.411v-20.83l-101.229.167c-31.28 0-55.501-23.97-58.112-55.14z" fill="#64bc0f"/><path d="m459.418 332.689h-130.544c-6.286 0-11.381-5.096-11.381-11.381v-54.701c0-6.286 5.096-11.381 11.381-11.381h130.544c6.286 0 11.381 5.096 11.381 11.381v54.701c0 6.285-5.095 11.381-11.381 11.381z" fill="#f0e1d3"/><path d="m328.875 332.689h20.552v-77.463h-20.552c-6.286 0-11.381 5.096-11.381 11.381v54.7c-.001 6.286 5.095 11.382 11.381 11.382z" fill="#d8c5b6"/><g><path d="m127.855 363.858v74.818c0 8.292 6.722 15.014 15.014 15.014h110.318c26.107 0 47.271-21.164 47.271-47.271v-42.561z" fill="#e76400"/><path d="m204.898 363.392c-.852-27.749-20.56-49.946-44.761-49.946-19.423 0-35.954 14.297-42.167 34.286-5.271-2.521-11.046-3.92-17.105-3.92-14.334 0-27.085 7.796-35.286 19.91l-24.146 30.623c14.711 22.5 32.882 42.532 53.757 59.345h48.803c-12.121 0-19.217-14.37-12.91-23.83 4.162-6.244 11.629-13.338 27.757-12.807 17.155.565 31.81-9.98 39.677-25.063 4.61-8.837 13.909-14.227 23.875-14.227h63.469c8.062 0 14.598-6.536 14.598-14.598z" fill="#cd5014"/><path d="m34.871 363.799-3.494 13.808c3.141 5.717 6.495 11.301 10.052 16.74 3.669 1.124 7.521 1.73 11.496 1.73 1.624 0 3.225-.106 4.804-.301 5.281 21.815 22.586 37.821 43.135 37.821 1.709 0 3.397-.111 5.056-.326l33.39-41.74 49.028.149c7.468-7.005 12.938-16.737 15.302-27.881z" fill="#64bc0f"/><path d="m24.358 363.799c2.209 4.679 4.536 9.291 7.018 13.808h167.414c2.158-4.25 3.782-8.897 4.826-13.808z" fill="#5ead0b"/><path d="m295.599 289.387h-245.302v59.146h275.402c4.483-6.149 7.135-13.718 7.135-21.91 0-20.565-16.671-37.236-37.235-37.236z" fill="#8b2800"/><path d="m295.599 289.387h-65.939c-1.911 3.333-2.934 6.852-2.934 10.49 0 21.118 34.477 38.238 77.006 38.238 9.892 0 19.347-.927 28.035-2.614.697-2.845 1.068-5.818 1.068-8.878-.001-20.565-16.672-37.236-37.236-37.236z" fill="#a03f0a"/><path d="m86.56 301.349 111.584 35.847 60.622-33.088c4.628-2.526 9.816-3.849 15.088-3.849h15.732c6.005 0 10.872-4.868 10.872-10.872-309.972 1.142-289.738-.863-297.912 1.635 3.636 25.711 11.104 50.189 21.814 72.836h271.251c13.545 0 25.399-7.234 31.914-18.048h-237.541c-8.992 0-17.096-3.136-23.43-8.286-17.816-14.483-1.933-43.223 20.006-36.175z" fill="#7d1a00"/><path d="m295.845 289.393-66.236.089c-1.876 3.305-2.883 6.791-2.883 10.395 0 6.196 2.971 12.047 8.239 17.223l23.802-12.991c4.628-2.526 9.816-3.85 15.088-3.85h15.732c5.895 0 10.683-4.695 10.856-10.548-1.507-.196-3.041-.308-4.598-.318z" fill="#8b2800"/><path d="m292.332 273.704h-208.915v16.253h208.915c4.488 0 8.126-3.638 8.126-8.126.001-4.488-3.638-8.127-8.126-8.127z" fill="#ffc305"/><path d="m83.417 289.957 114.727 36.857 82.416-44.983z" fill="#ffc305"/><path d="m198.144 326.814v-19.005l-106.106-34.105h-75.863c-4.488 0-8.126 3.638-8.126 8.126 0 4.488 3.638 8.126 8.126 8.126h67.243z" fill="#ffa50a"/><path d="m280.462 214.439c8.637 0 14.16-9.331 9.876-16.83-.031-.054-.062-.108-.093-.162-18.299-31.897-52.691-53.383-92.101-53.383-46.063 0-85.264 29.355-99.932 70.375z" fill="#ef7f00"/><path d="m234.314 212.721c-44.195 0-80.023-24.001-80.023-53.608 0-1.959.161-3.893.467-5.799-36.969 16.586-62.721 53.712-62.721 96.856h212.213c0-19.191-5.096-37.191-14.006-52.723-14.427 9.448-34.162 15.274-55.93 15.274z" fill="#e76400"/><ellipse cx="186.062" cy="170.446" fill="#ffdc8c" rx="11.924" ry="5.536"/><ellipse cx="246.864" cy="186.343" fill="#ffdc8c" rx="11.924" ry="5.536"/><path d="m203.79 227.301c7.734 0 13.233-7.713 10.505-14.95-.019-.051-.038-.102-.058-.152-.046-.119-.092-.238-.138-.357-15.369-39.658-53.887-67.777-98.972-67.777-29.3 0-55.827 11.876-75.028 31.078-.192.192-.383.385-.574.578-.309.314-.612.63-.909.949-17.915 19.221-3.835 50.632 22.44 50.632h142.734z" fill="#f59707"/><path d="m148.4 222.196c-57.146 0-103.996-20.664-108.428-46.925-19.126 19.192-30.951 45.664-30.951 74.899h212.213c0-13.516-2.532-26.438-7.14-38.327-18.254 6.496-41.012 10.353-65.694 10.353z" fill="#ef7f00"/><g fill="#ffebb4"><ellipse cx="71.494" cy="180.807" rx="11.924" ry="5.536"/><ellipse cx="139.311" cy="201.742" rx="11.924" ry="5.536"/><ellipse cx="139.311" cy="164.911" rx="11.924" ry="5.536"/></g><path d="m34.344 249.119h68.752v25.04h-68.752z" fill="#dc1428"/><path d="m2.277 249.119h33.476v25.04h-33.476z" fill="#be1423"/><path d="m100.865 249.119h29.647v25.04h-29.647z" fill="#ff3c3c"/><path d="m194.293 249.119h113.655v25.04h-113.655z" fill="#ff3c3c"/><path d="m188.333 391.674c-11.47-12.835-32.253-17.322-51.849-9.777-23.167 8.92-36.284 31.425-30.564 51.368 17.196-2.235 31.445-15.724 37.112-33.953 5.271 2.521 11.046 3.919 17.105 3.919 10.687 0 20.496-4.334 28.196-11.557z" fill="#97d729"/><path d="m130.01 249.119h65.006v25.04h-65.006z" fill="#f88"/></g></g></svg>